<svg width="15" height="14" viewBox="0 0 15 14" fill="none" xmlns="http://www.w3.org/2000/svg">
<path d="M10.0192 7.91381H0.618748V4.32764C0.618748 3.55226 0.74409 2.91072 0.994767 2.40303C1.24544 1.89534 1.59013 1.51688 2.02882 1.26764C2.46751 1.01841 2.95992 0.893799 3.50604 0.893799C4.0253 0.893799 4.50428 1.0138 4.94297 1.2538C5.3727 1.4938 5.72186 1.86765 5.99045 2.37534C6.2501 2.88303 6.3799 3.5338 6.3799 4.32764V6.1415H10.0192V7.91381ZM4.98326 6.1415V4.43841C4.98326 3.81995 4.85346 3.37688 4.59381 3.10918C4.32522 2.83226 3.96263 2.6938 3.50604 2.6938C3.04049 2.6938 2.6779 2.83226 2.41827 3.10918C2.14968 3.37688 2.01539 3.81995 2.01539 4.43841V6.1415H4.98326Z" fill="#2D70FD"/>
<path d="M4.78185 6.14145H14.1823V9.7276C14.1823 10.503 14.057 11.1445 13.8063 11.6522C13.5557 12.1599 13.2109 12.5384 12.7723 12.7876C12.3336 13.0368 11.8411 13.1614 11.295 13.1614C10.7758 13.1614 10.2968 13.0415 9.85812 12.8014C9.42838 12.5614 9.07922 12.1876 8.81063 11.6799C8.55098 11.1722 8.42118 10.5215 8.42118 9.7276V7.91376H4.78185V6.14145ZM9.81783 7.91376V9.61683C9.81783 10.2353 9.94762 10.6783 10.2073 10.9461C10.4759 11.223 10.8385 11.3614 11.295 11.3614C11.7606 11.3614 12.1232 11.223 12.3828 10.9461C12.6514 10.6783 12.7857 10.2353 12.7857 9.61683V7.91376H9.81783Z" fill="#2D70FD"/>
<path d="M3.50619 13.1616C4.32204 13.1616 4.98341 12.4797 4.98341 11.6386C4.98341 10.7974 4.32204 10.1155 3.50619 10.1155C2.69035 10.1155 2.02897 10.7974 2.02897 11.6386C2.02897 12.4797 2.69035 13.1616 3.50619 13.1616Z" fill="#FFD166"/>
<path d="M11.2948 3.95369C12.1107 3.95369 12.772 3.27178 12.772 2.43061C12.772 1.58944 12.1107 0.907532 11.2948 0.907532C10.479 0.907532 9.81761 1.58944 9.81761 2.43061C9.81761 3.27178 10.479 3.95369 11.2948 3.95369Z" fill="#00D8A7"/>
</svg>
